<?xml version="1.0" standalone="no"?>
<!DOCTYPE svg PUBLIC "-//W3C//DTD SVG 20010904//EN"
 "http://www.w3.org/TR/2001/REC-SVG-20010904/DTD/svg10.dtd">
<svg version="1.0" xmlns="http://www.w3.org/2000/svg"
 width="422.000000pt" height="385.000000pt" viewBox="0 0 422.000000 385.000000"
 preserveAspectRatio="xMidYMid meet">

<g transform="translate(0.000000,385.000000) scale(0.100000,-0.100000)"
fill="#000000" stroke="none">
<path d="M2046 2916 c-52 -19 -86 -45 -114 -86 -97 -143 4 -334 178 -334 228
0 297 305 93 408 -47 24 -112 29 -157 12z"/>
<path d="M1253 2401 c-75 -19 -107 -63 -78 -107 19 -30 46 -41 145 -60 99 -19
110 -23 110 -39 0 -21 -17 -27 -73 -27 -40 0 -55 4 -68 21 -14 17 -28 21 -73
21 -48 0 -56 -3 -56 -18 0 -53 96 -88 223 -80 133 9 200 51 177 112 -12 33
-57 53 -162 71 -87 16 -98 20 -98 40 0 30 115 30 127 -1 6 -16 123 -21 123 -5
0 23 -15 43 -44 58 -35 18 -200 27 -253 14z"/>
<path d="M1630 2265 l0 -145 175 0 175 0 0 25 0 25 -115 0 -115 0 0 35 0 35
105 0 105 0 0 30 0 30 -105 0 -105 0 0 25 0 25 110 0 110 0 0 30 0 30 -170 0
-170 0 0 -145z"/>
<path d="M2040 2265 l0 -145 60 0 60 0 0 95 c0 52 3 95 8 94 4 0 43 -43 87
-95 l80 -94 88 0 87 0 0 145 0 145 -60 0 -60 0 0 -102 -1 -103 -97 103 -97
102 -77 0 -78 0 0 -145z"/>
<path d="M2718 2393 c-8 -10 -54 -75 -102 -145 l-87 -128 60 0 c54 0 62 3 77
25 16 24 20 25 119 25 99 0 103 -1 119 -25 15 -22 23 -25 82 -25 36 0 64 4 62
9 -1 5 -43 70 -93 145 l-90 136 -66 0 c-51 0 -69 -4 -81 -17z m105 -104 c16
-28 26 -53 24 -56 -3 -2 -32 -3 -65 -1 l-61 3 32 53 c18 28 34 52 37 52 3 0
18 -23 33 -51z"/>
<path d="M1080 1960 l0 -80 308 0 c324 0 332 -1 332 -45 0 -12 -81 -162 -180
-334 -99 -172 -180 -314 -180 -316 0 -2 24 -26 53 -54 39 -38 55 -47 63 -38 9
10 497 856 533 925 l12 22 -471 0 -470 0 0 -80z"/>
<path d="M2211 2018 c36 -69 524 -915 533 -925 8 -9 24 0 64 38 28 28 52 52
52 54 0 2 -81 144 -180 316 -99 172 -180 322 -180 334 0 44 8 45 332 45 l308
0 0 80 0 80 -470 0 -471 0 12 -22z"/>
<path d="M1865 1462 c-132 -224 -248 -421 -258 -439 l-19 -32 66 -33 c36 -17
67 -30 69 -27 2 2 80 132 172 289 93 157 173 288 179 293 6 4 24 6 41 5 27 -3
42 -24 203 -293 95 -159 178 -292 183 -293 7 -3 110 49 127 63 2 2 -504 846
-522 872 -1 1 -109 -181 -241 -405z"/>
</g>
</svg>
